

info, sample..
 
http://www.btarena.org/movies/dvdrip/tekken-2010-dvdrip-xvid-ac3-vision




SAMPLE-Tekken.2010.DVDRip.XviD.AC3-ViSiON.avi
Format                           : AVI
Format/Info                      : Audio Video Interleave
File size                        : 15.3 MiB
Duration                         : 1mn 7s
Overall bit rate                 : 1 918 Kbps
Writing application              : VirtualDubMod 1.5.10.2 (build 2542/release)
Writing library                  : VirtualDubMod build 2542/release

Video
ID                               : 0
Format                           : MPEG-4 Visual
Format profile                   : Advanced Simple@L5
Format settings, BVOP            : Yes
Format settings, QPel            : No
Format settings, GMC             : No warppoints
Format settings, Matrix          : Custom
Muxing mode                      : Packed bitstream
Codec ID                         : XVID
Codec ID/Hint                    : XviD
Duration                         : 1mn 7s
Bit rate                         : 1 459 Kbps
Width                            : 720 pixels
Height                           : 400 pixels
Display aspect ratio             : 16:9
Frame rate                       : 25.000 fps
Resolution                       : 8 bits
Colorimetry                      : 4:2:0
Scan type                        : Progressive
Bits/(Pixel*Frame)               : 0.203
Stream size                      : 11.7 MiB (76%)
Writing library                  : XviD 1.2.1 (UTC 2008-12-04)

Audio
ID                               : 1
Format                           : AC-3
Format/Info                      : Audio Coding 3
Codec ID                         : 2000
Duration                         : 1mn 7s
Bit rate mode                    : Constant
Bit rate                         : 448 Kbps
Channel(s)                       : 6 channels
Channel positions                : Front: L C R, Surround: L R, LFE
Sampling rate                    : 48.0 KHz
Video delay                      : 8ms
Stream size                      : 3.58 MiB (23%)
Alignment                        : Split accross interleaves
Interleave, duration             : 40 ms (1.01 video frame)
Interleave, preload duration     : 500 ms



A high-octane action movie about a young man who discovers he holds a great power and must battle a team of elite fighters who will stop at nothing in order to get it from him.

